name rise43.5482peak65.4966fall89.1036.mot
datacolumns 19
datarows 12
range 13.67995800000000 13.69827500000000
endheader
time	ground_force1_vx	ground_force1_vy	ground_force1_vz	ground_force1_px	ground_force1_py	ground_force1_pz	ground_force2_vx	ground_force2_vy	ground_force2_vz	ground_force2_px	ground_force2_py	ground_force2_pz	ground_torque1_x	ground_torque1_y	ground_torque1_z	ground_torque2_x	ground_torque2_y	ground_torque2_z	
13.67995800000000	20.86904300000000	694.15600500000005	39.14517100000000	0.20839600000000	0.00000000000000	0.09680800000000	0.00000000000000	0.00000000000000	0.00000000000000	0.00000000000000	0.00000000000000	0.00000000000000	0.00000000000000	12.27108900000000	0.00000000000000	0.00000000000000	0.00000000000000	0.00000000000000	
13.68161500000000	20.55595900000000	695.09521600000005	39.14536400000000	0.20764400000000	0.00000000000000	0.09669400000000	0.00000000000000	0.00000000000000	0.00000000000000	0.00000000000000	0.00000000000000	0.00000000000000	0.00000000000000	12.30341100000000	0.00000000000000	0.00000000000000	0.00000000000000	0.00000000000000	
13.68327400000000	20.22852800000000	696.06162600000005	39.14798900000000	0.20685100000000	0.00000000000000	0.09658100000000	0.00000000000000	0.00000000000000	0.00000000000000	0.00000000000000	0.00000000000000	0.00000000000000	0.00000000000000	12.33824700000000	0.00000000000000	0.00000000000000	0.00000000000000	0.00000000000000	
13.68494300000000	19.88652400000000	697.05307200000004	39.15278400000000	0.20602000000000	0.00000000000000	0.09647000000000	0.00000000000000	0.00000000000000	0.00000000000000	0.00000000000000	0.00000000000000	0.00000000000000	0.00000000000000	12.37554500000000	0.00000000000000	0.00000000000000	0.00000000000000	0.00000000000000	
13.68660700000000	19.52977800000000	698.06751799999995	39.15949700000000	0.20514900000000	0.00000000000000	0.09636000000000	0.00000000000000	0.00000000000000	0.00000000000000	0.00000000000000	0.00000000000000	0.00000000000000	0.00000000000000	12.41525600000000	0.00000000000000	0.00000000000000	0.00000000000000	0.00000000000000	
13.68828200000000	19.15817200000000	699.10306100000003	39.16788700000000	0.20424100000000	0.00000000000000	0.09625300000000	0.00000000000000	0.00000000000000	0.00000000000000	0.00000000000000	0.00000000000000	0.00000000000000	0.00000000000000	12.45733600000000	0.00000000000000	0.00000000000000	0.00000000000000	0.00000000000000	
13.68994500000000	18.77164400000000	700.15793199999996	39.17773100000000	0.20329700000000	0.00000000000000	0.09614700000000	0.00000000000000	0.00000000000000	0.00000000000000	0.00000000000000	0.00000000000000	0.00000000000000	0.00000000000000	12.50174400000000	0.00000000000000	0.00000000000000	0.00000000000000	0.00000000000000	
13.69160600000000	18.37018300000000	701.23049700000001	39.18881400000000	0.20231700000000	0.00000000000000	0.09604300000000	0.00000000000000	0.00000000000000	0.00000000000000	0.00000000000000	0.00000000000000	0.00000000000000	0.00000000000000	12.54844400000000	0.00000000000000	0.00000000000000	0.00000000000000	0.00000000000000	
13.69328000000000	17.95383000000000	702.31926499999997	39.20094100000000	0.20130400000000	0.00000000000000	0.09594100000000	0.00000000000000	0.00000000000000	0.00000000000000	0.00000000000000	0.00000000000000	0.00000000000000	0.00000000000000	12.59740200000000	0.00000000000000	0.00000000000000	0.00000000000000	0.00000000000000	
13.69494400000000	17.52267900000000	703.42288399999995	39.21392700000000	0.20026000000000	0.00000000000000	0.09584000000000	0.00000000000000	0.00000000000000	0.00000000000000	0.00000000000000	0.00000000000000	0.00000000000000	0.00000000000000	12.64858600000000	0.00000000000000	0.00000000000000	0.00000000000000	0.00000000000000	
13.69661100000000	17.07687100000000	704.54014500000005	39.22760400000000	0.19918600000000	0.00000000000000	0.09574000000000	0.00000000000000	0.00000000000000	0.00000000000000	0.00000000000000	0.00000000000000	0.00000000000000	0.00000000000000	12.70196800000000	0.00000000000000	0.00000000000000	0.00000000000000	0.00000000000000	
13.69827500000000	16.61659600000000	705.66998000000001	39.24182100000000	0.19808400000000	0.00000000000000	0.09564200000000	0.00000000000000	0.00000000000000	0.00000000000000	0.00000000000000	0.00000000000000	0.00000000000000	0.00000000000000	12.75752200000000	0.00000000000000	0.00000000000000	0.00000000000000	0.00000000000000	
